<?xml version="1.0" encoding="UTF-8"?><svg id="Layer_1" xmlns="http://www.w3.org/2000/svg" viewBox="0 0 603.10467 266.54064"><defs><style>.cls-1{fill:#fff;}</style></defs><path class="cls-1" d="M172.46442,61.76428c-24.61159-.00023-49.22316-.00214-73.83474,.0018-3.75708,.0006-3.76546,.01311-3.76758,3.7055-.00525,9.14215,.00425,18.28431-.00562,27.42645-.00363,3.36206-.60277,4.00171-3.8649,4.00337-22.02088,.01121-44.04178,.01233-66.06266-.00172-3.20465-.00205-3.70674-.54296-3.70771-3.81862-.00656-22.1654-.00703-44.33081,.00117-66.49621,.00115-3.10019,.53593-3.6751,3.57499-3.6772,22.19359-.01533,44.38721-.01611,66.58079,.00193,2.82465,.00229,3.46809,.687,3.47395,3.55984,.01882,9.22836,.00542,18.45678,.00942,27.68518,.00167,3.85431,.00736,3.86631,3.87883,3.86654,49.91401,.00284,99.82803,.00192,149.74204,.0022q5.53889,.00003,5.54008,5.5052c.00087,5.86478,.08964,11.73151-.04024,17.5934-.05541,2.49968,.62467,3.47,3.33961,3.42179,9.23721-.16406,18.47914-.06894,27.71927-.05907,3.44656,.00368,4.10431,.65239,4.10826,4.06145,.01088,9.40087,.0605,18.80236-.03729,28.20223-.02255,2.16827,.73938,2.87604,2.83766,2.85265,6.73495-.07511,13.47133-.04177,20.20704-.01296,3.00066,.01283,3.40952,.45273,3.42208,3.50475,.01844,4.48476,.0988,8.97237-.03299,13.4533-.06449,2.19172,.78631,2.8348,2.87052,2.7989,5.61147-.09666,11.22693-.09895,16.83831,.00066,2.04642,.03634,2.6617-.68573,2.64165-2.70753-.0913-9.2275-.04848-18.45641-.0345-27.68479,.00607-3.99764,.47894-4.46866,4.46412-4.46989,21.76183-.0067,43.52363-.00705,65.28545-.00005,4.0953,.00132,4.34457,.27508,4.34559,4.47345,.00215,9.14215,.06537,18.28507-.04405,27.4259-.0271,2.26395,.67306,2.98544,2.94772,2.97191,14.0756-.08374,28.15212-.07929,42.22785-.00378,2.25467,.0121,3.06888-.75124,3.0185-2.99296-.10845-4.82734-.04295-9.65891-.02511-14.48866,.01189-3.22686,.51297-3.74039,3.77771-3.7434,14.93965-.01373,29.87984-.06842,44.81852,.05268,2.58861,.02097,3.38783-.61699,3.33897-3.2841-.16895-9.22531-.07461-18.45562-.0593-27.68399,.00534-3.21908,.55595-3.76749,3.77667-3.7687,22.10725-.00838,44.21449-.00747,66.32174-.00113,3.2166,.00092,3.98448,.722,3.98714,3.94392,.01815,21.90664,.01904,43.81333-.00051,65.71997-.00304,3.34971-.59292,3.89351-3.94027,3.89458-22.10725,.00714-44.21449,.0076-66.32174-.00066-3.4013-.00128-3.82094-.44068-3.82496-3.93817-.01059-9.22839-.06414-18.45746,.03874-27.68472,.0253-2.2707-.50696-3.17241-2.99835-3.15277-14.07522,.11102-28.15203,.09635-42.2276,.01144-2.31609-.01398-3.01157,.83276-2.9635,3.02728,.10569,4.82747,.04453,9.65896,.0234,14.48869-.01331,3.05041-.3186,3.38228-3.45674,3.38701-14.76691,.02226-29.53389,.00907-44.30083,.01505q-4.11117,.00166-4.11307,4.11304c-.00098,8.88341,.00405,17.76683-.00256,26.65024-.00272,3.66623-.56044,4.23773-4.15621,4.24082-9.32407,.00802-18.64896,.06841-27.97166-.04297-2.29452-.0274-3.06312,.7756-2.99956,2.97692,.10452,3.61936,.07173,7.24457,.01287,10.86595-.03109,1.91425,.60965,2.77916,2.70094,2.7698,14.59395-.06545,29.18844-.06464,43.78239-.0016,2.08516,.009,2.65072-.80267,2.63643-2.75895-.06863-9.40038-.03447-18.80156-.02644-28.20244,.003-3.50228,.30984-3.81494,3.88815-3.81618,22.02088-.00774,44.04178-.00744,66.06266,.00005,3.60048,.00122,3.73549,.1431,3.73657,3.85451,.00639,21.90667,.00667,43.81332-.00063,65.71999-.00123,3.71348-.30532,4.01026-3.96465,4.01088-21.84817,.0037-43.69637,.00371-65.54453-.00002-3.76051-.00063-4.17528-.41174-4.17797-4.13341-.0067-9.22839-.07176-18.45767,.04516-27.68458,.02897-2.28654-.66642-2.92239-2.93912-2.90824-15.11176,.09413-30.22444,.05178-45.3368,.04616-4.22585-.00158-4.64043-.41417-4.6447-4.52503-.0044-4.22609,.0062-8.45219-.00408-12.67826-.00844-3.47518-.01774-3.48542-3.40342-3.4876-9.15379-.00589-18.30756,.00156-27.46135-.00422-3.63441-.00231-4.32158-.69087-4.32734-4.42441-.01392-9.05589-.00234-18.11182-.00617-27.16772-.00142-3.37512-.00787-3.39814-3.49109-3.40858-6.39032-.01916-12.78084,.0129-19.17107-.01873-3.19485-.01582-3.74634-.59528-3.7619-3.81082-.02173-4.48473-.08137-8.97142,.02685-13.45363,.04722-1.95538-.73397-2.56368-2.58168-2.54359-5.69882,.06199-11.39958,.0766-17.09783-.00794-2.03323-.03016-2.67827,.73325-2.66081,2.73967,.08118,9.31393,.04058,18.62898,.03201,27.94362-.00345,3.71413-.4273,4.14139-4.1965,4.1473-8.8947,.01393-17.78941,.00055-26.68413,.00766-4.18742,.00333-4.24411,.05973-4.24539,4.13829-.00433,13.79947-.00109,27.59893-.00218,41.3984q-.00041,5.17366-5.31901,5.17573c-10.36277,.00133-20.72556-.00815-31.08832,.00625-3.57904,.00497-3.58544,.03132-3.58699,3.62417-.004,9.22839,.00778,18.45682-.00732,27.68518-.00504,3.07989-.58313,3.68712-3.58557,3.6888-22.1936,.01241-44.3872,.01124-66.5808,.00194-3.04234-.00128-3.49434-.42701-3.4963-3.43194-.01457-22.33789,.01482-44.67585-.04069-67.0136-.0058-2.33797,.81822-3.21021,3.16868-3.20503,22.36619,.04932,44.73255,.02055,67.09884,.0373,2.99962,.00224,3.43147,.47391,3.43614,3.50181,.01452,9.40087,.07159,18.80254-.03963,28.20212-.02785,2.35373,.6746,3.14734,3.07946,3.12071,10.10247-.11181,20.2072-.08986,30.31032-.01346,2.10154,.01587,2.91309-.65029,2.90316-2.81102-.06294-13.71294-.08575-27.42671,.01668-41.13917,.01953-2.61177-1.2673-2.98796-3.35761-2.98014-9.06728,.03391-18.13477,.01726-27.20219,.00867-4.29656-.00407-4.67021-.38541-4.67424-4.78449-.0083-9.05589-.05541-18.11233,.03569-27.16732,.02098-2.08558-.56204-2.9045-2.75507-2.88975-11.57121,.07783-23.14348,.07316-34.71481,.00268-2.16206-.01316-2.89856,.83131-2.88066,2.90116,.0589,6.81296,.03476,13.62683,.00814,20.44022-.01233,3.15614-.43481,3.55601-3.62681,3.55849-12.17626,.00949-24.35251,.003-36.52877,.00485q-3.99345,.00062-3.99693,3.86629c-.00177,8.88341,.00344,17.76681-.0026,26.65022-.00262,3.87241-.32191,4.20775-4.07231,4.2086-21.93453,.00507-43.86906,.00483-65.80359,.00027-3.7021-.00077-3.93053-.21655-3.93218-3.9801-.00956-21.82041-.00997-43.64083,.0008-65.46125,.00185-3.75566,.39587-4.12102,4.17658-4.1215,21.76182-.00274,43.52364-.00278,65.28546,.00003,3.91046,.00051,4.34274,.42292,4.34528,4.25778,.00614,9.2284,.06101,18.45743-.04086,27.68471-.02352,2.13028,.59559,2.80072,2.7621,2.78298,11.65733-.0955,23.31615-.08817,34.97369-.00502,2.04447,.01458,2.73395-.64354,2.71021-2.66033-.08014-6.81253-.0401-13.62664-.02057-20.44008,.00867-3.02908,.38471-3.41253,3.47216-3.41707,12.34894-.01815,24.69791-.00338,37.04688-.01352,3.5488-.00291,3.55347-.02251,3.55462-3.59774,.00286-8.88341-.00342-17.76682,.00305-26.65023,.00305-4.20057,.63301-4.84041,4.74239-4.84235,9.06742-.00426,18.13586-.07558,27.20161,.04764,2.4311,.03305,3.37065-.6144,3.29388-3.1665-.16332-5.42863-.03786-10.86562-.0541-16.29911-.00944-3.16327-.14345-3.29554-3.42279-3.29643-24.7843-.00666-49.5686-.00364-74.35289-.00386Zm182.74819,109.65564v-41.1898c3.42957,11.15696,6.88056,22.43671,10.37335,33.70351,.73587,2.37379,.96933,5.60836,2.6233,6.79961,1.74474,1.25662,4.94404,.34318,7.45055,.73953,3.18719,.504,4.28755-1.05209,5.16368-3.79706,3.97076-12.44077,8.13136-24.82111,12.42245-37.82583,0,2.07608,.01486,3.5107-.00234,4.94493-.13852,11.54775-.276,23.09555-.43505,34.64302-.01932,1.40411,.52973,2.03034,1.98683,1.99626,2.67549-.06262,5.35521-.07655,8.02972,.00384,1.54236,.04638,1.87984-.6901,1.87804-2.04366-.02299-17.4212-.03435-34.84251,.01499-52.26361,.00509-1.80229-.78926-2.16183-2.35461-2.12951-3.45263,.07127-6.90845-.02218-10.36178,.03026-4.48638,.06814-3.8774-.84097-5.4609,3.98169-4.10943,12.51582-8.21324,25.03347-12.41078,37.82925-.29928-.90454-.51895-1.53236-.71535-2.16743-3.79093-12.25853-7.62402-24.50446-11.32605-36.78976-.65579-2.17629-1.65331-3.05689-3.99115-2.91725-3.44184,.20558-6.90513,.05029-10.35928,.05367q-3.61901,.00355-3.62885,3.75401c-.00436,11.64291-.00228,23.28583-.00145,34.92875,.00035,5.08838,.03858,10.17712-.01385,15.26492-.01733,1.67933,.43081,2.56253,2.33582,2.48185,2.83972-.12025,5.68836-.03121,8.7827-.03121Zm170.77208-48.93165c0,8.53518,.0419,17.07072-.03099,25.60528-.01708,2.00051,.62164,2.71389,2.68997,2.67085,5.95379-.12386,11.91827,.12393,17.86634-.09885,6.13985-.22996,11.80303-2.1041,16.91864-5.6596,11.34325-7.88388,11.98519-28.0733,6.4723-37.82774-4.87032-8.61759-12.80563-12.27358-22.29099-12.78954-6.11104-.33241-12.25939,.07397-18.38143-.13326-2.72988-.09241-3.33552,.89168-3.29583,3.40397,.13061,8.2745,.04918,16.55232,.05199,24.82887ZM149.61865,237.12461c4.02071,0,7.45705-.07753,10.88748,.03119,1.84284,.05842,2.84636-.53217,3.33526-2.3921,.78725-2.99496,1.9026-5.90356,2.69963-8.89639,.4322-1.62292,1.22658-2.23121,2.89963-2.20481,5.00663,.07907,10.01723,.10719,15.02221-.01298,1.84379-.04428,2.63426,.73141,3.09258,2.35808,.84044,2.98308,1.71044,5.96352,2.74332,8.88326,.29648,.83808,1.16459,2.05696,1.82129,2.08979,3.92975,.19642,7.87431,.09732,12.20435,.09732-.38191-1.47331-.58201-2.54298-.93611-3.55912-1.44538-4.14771-2.94631-8.27605-4.41138-12.41695-4.5107-12.74936-9.04617-25.49013-13.48674-38.26382-.67502-1.94178-1.68284-2.73684-3.76392-2.63354-3.10068,.15395-6.2234,.18209-9.32019-.00687-2.33905-.14272-3.31583,.85021-4.0478,2.95612-5.85385,16.84184-11.81718,33.64573-17.73468,50.46554-.33174,.94291-.55524,1.92381-1.00493,3.5053Zm329.17113-34.65189c0-2.89511-.09111-5.45948,.03068-8.01373,.08745-1.83387-.62853-2.39025-2.39971-2.35468-4.4867,.09013-8.98089-.0903-13.46323,.07527-2.34762,.08672-3.06306-.77186-2.88605-2.992,.15709-1.97032,.12846-3.96882,.00667-5.9441-.11834-1.91921,.61253-2.58194,2.53456-2.54301,4.91811,.09964,9.8421-.0597,14.75859,.07393,2.19091,.05955,3.23567-.50817,2.99813-2.87275-.16294-1.62164-.13896-3.28167-.00436-4.90851,.16863-2.03849-.6025-2.66441-2.64946-2.64284-9.23504,.09735-18.47226,.09965-27.70721-.00008-2.15546-.02328-2.82761,.68182-2.8197,2.80397,.06319,16.98284,.06702,33.96615-.00288,50.94894-.00911,2.21097,.82306,2.75734,2.89291,2.73025,7.50839-.09833,15.01888-.0383,22.52857-.03817,7.94056,.00011,7.88658,.00082,7.76877-7.84232-.02827-1.88094-.57942-2.57834-2.5202-2.53663-5.0041,.1075-10.01459-.05715-15.01742,.07634-2.20062,.05872-2.88558-.75038-2.76679-2.85138,.14089-2.49208,.03115-4.99823,.03283-7.49827q.00247-3.66718,3.68245-3.66983c4.89233-.00153,9.78463-.00039,15.00284-.00039ZM78.2148,77.73604c-1.98263,.55175-3.35726,1.10072-4.78081,1.29851-3.90007,.54189-7.81248,1.19289-11.73548,1.31856-4.1634,.13335-7.47566-2.06961-9.08502-5.77681-3.60054-8.29396-3.7157-16.75955,.51721-24.90216,1.85018-3.55909,5.11658-5.40836,9.26635-5.68724,4.20303-.28245,8.02488,.90025,11.71079,2.6583,1.77429,.84628,2.66153,.40896,3.27484-1.38783,.69407-2.03339,1.51288-4.03222,2.40663-5.98717,.69514-1.52051,.33-2.31655-1.2138-2.96488-5.16049-2.16717-10.47344-3.1771-16.10216-3.0949-11.34372,.16567-19.97737,6.30129-23.58269,17.07316-2.1227,6.34213-2.38751,12.83704-1.33763,19.36449,1.06186,6.60195,3.52081,12.45602,8.89059,16.97343,7.5844,6.38048,23.83999,5.32398,30.71135,2.09834,.45711-.21459,1.00001-.85205,1.01322-1.307,.0893-3.07695,.04661-6.15774,.04661-9.6768Zm186.34507,74.02168c.74147-6.84871,.77509-6.91862-4.60923-9.50069-1.64783-.7902-1.9275-1.89504-1.9195-3.49397,.04646-9.30887,.22499-18.62465-.07665-27.92399-.12114-3.73487,.73233-6.09559,4.51219-7.01673,1.89118-.46089,2.59944-1.76393,2.34224-3.68003-.10231-.76212-.096-1.55882-.00264-2.32316,.23577-1.93056-.55962-2.53076-2.48303-2.49983-6.29863,.1013-12.59991,.03675-18.90018,.03654-5.22798-.00017-5.22298,.10603-4.96718,5.33486,.13392,2.73735,2.31824,3.02567,4.01413,3.72022,2.15246,.88153,2.95528,2.13021,2.92582,4.48767-.12276,9.82475-.10652,19.65244-.00974,29.47777,.02171,2.20334-.6619,3.42245-2.75852,4.29772-4.46652,1.8646-4.37715,2.00639-4.16155,6.72692,.07918,1.73328,.67713,2.43063,2.48431,2.38742,4.22651-.10103,8.45711-.03113,12.68606-.03081,3.60002,.00028,7.20004,.00006,10.92347,.00006Zm-186.78255-1.40449c0,8.53654,.03331,17.07331-.0257,25.60944-.01315,1.90247,.44626,2.77161,2.60931,2.74972,10.18677-.10313,20.37538-.08032,30.56276-.01464,1.80492,.01164,2.51585-.64719,2.46393-2.3917-.05127-1.72292-.07858-3.4526,.01517-5.17217,.1123-2.05951-.6068-2.91023-2.82066-2.85525-5.52217,.13715-11.05394-.07712-16.57392,.0985-2.55011,.08113-3.53982-.55978-3.41136-3.28295,.21918-4.64599,.06053-9.30974,.06029-13.96604-.00046-8.62277-.07144-17.24648,.0438-25.8677,.03197-2.3915-.74862-3.23071-3.12453-3.03508-2.22959,.18358-4.49824,.18416-6.72772-.00011-2.37895-.19663-3.15252,.64707-3.1187,3.03636,.11839,8.36241,.04588,16.72752,.04733,25.09161Z"/><path class="cls-1" d="M538.86462,122.52572c.00041-5.08535,.08046-10.17258-.03849-15.25515-.04842-2.0691,.69577-2.81515,2.70474-2.62438,2.56565,.24363,5.18775,.1363,7.70315,.61346,4.77159,.90515,8.09218,3.73729,9.60408,8.4194,1.79698,5.56481,1.8343,11.20267,.09791,16.77158-2.00755,6.43881-7.14353,9.74324-15.31995,9.90343-5.52004,.10814-4.70691,.36855-4.74486-4.64093-.03327-4.39558-.00699-8.79159-.00658-13.18742Z"/><path class="cls-1" d="M177.02388,191.40945c2.29356,7.43022,4.36649,14.14572,6.55337,21.2304h-12.95219c2.07839-6.89585,4.12563-13.68831,6.39882-21.2304Z"/></svg>